<?xml version="1.0" standalone="no"?>
<!DOCTYPE svg PUBLIC "-//W3C//DTD SVG 20010904//EN"
 "http://www.w3.org/TR/2001/REC-SVG-20010904/DTD/svg10.dtd">
<svg version="1.0" xmlns="http://www.w3.org/2000/svg"
 width="500.000000pt" height="347.000000pt" viewBox="0 0 500.000000 347.000000"
 preserveAspectRatio="xMidYMid meet">

<g transform="translate(0.000000,347.000000) scale(0.100000,-0.100000)"
fill="#000000" stroke="none">
<path d="M2290 2437 c-299 -90 -495 -365 -477 -672 11 -177 73 -313 202 -442
96 -95 201 -152 327 -177 69 -14 241 -22 211 -9 -10 3 -13 45 -13 158 l0 154
56 16 c140 41 239 154 266 306 10 56 -2 163 -20 181 -5 5 -23 1 -40 -8 -25
-12 -31 -21 -28 -37 14 -69 15 -98 1 -151 -26 -100 -98 -178 -185 -200 -15 -4
-10 2 15 15 60 32 123 97 142 149 25 62 23 162 -4 221 -28 63 -86 125 -150
161 l-53 30 0 164 0 164 -87 -1 c-61 0 -111 -7 -163 -22z m378 -542 c-3 -3 -9
2 -12 12 -6 14 -5 15 5 6 7 -7 10 -15 7 -18z m8 -121 c-4 -17 -22 -49 -42 -70
l-35 -39 32 43 c28 36 34 54 38 110 5 52 6 58 9 27 2 -21 1 -53 -2 -71z"/>
</g>
</svg>
