<?xml version="1.0" encoding="UTF-8" standalone="no"?>
<svg xmlns="http://www.w3.org/2000/svg" version="1.1" width="300" height="300" viewBox="0 0 300 300">
	<rect width="300" height="300" fill="#fff"/>

	<path fill="#F00" transform="scale(.1)" d="m450,1125,0-163c334,0,281,57,559,57,288,0,470-566,749-566,494,0,497-143,801-143,271,0,278,196,358,345v47c-73-152-110-364-348-364-258,0-404,163-770,163-206,0-284,155-358,239,97-78,222-153,327-153,337,0,671-182,886-182,169,0,232,239,263,326v38c-52-143-102-345-263-345-144,0-668,201-917,201-104,0-348,211-474,364,63-19,146-38,221-38,110,0,150,19,211,19,107,0,284-76,453-115,211-48,409-124,527-124,127,0,168,124,242,268v57c-73-182-116-297-263-297-72,0-261,59-464,115-211,57-425,134-517,134-42,0-130-09-179-09-119,0-211,38-295,76,263,38,396,461,611,450,79-03,235-73,366-104,107-25,202-67,318-67,60,0,124-28,179-28,111,0,167,119,242,211v47c-39-115-160-230-253-230,0,0-111,28-168,28-167,0-555,182-696,182-238,0-327-375-569-412,346,338,314,1007,770,1007,428,0,653-38,696-38,78,0,129,109,221,153v47c-61-71-131-163-253-163-44,0-458,47-696,47-269,0-308-189-495-566-227-456-228-532-1023-518z"/>

	<rect x="41.5" y="8.5" width="250" height="260" stroke="#000" fill="none"/>
	<g stroke="#000" fill="none" stroke-width="2px">
		<path d="m51, 10h231" stroke-dasharray="1,9"/>
		<path d="m91, 12h151" stroke-dasharray="1,49"/>
		<path d="m51,267h231" stroke-dasharray="1,9"/>
		<path d="m91,265h151" stroke-dasharray="1,49"/>
		
		<path d="m 43,18v241" stroke-dasharray="1,9"/>
		<path d="m 45,48v201" stroke-dasharray="1,39"/>
		<path d="m290,18v241" stroke-dasharray="1,9"/>
		<path d="m288,48v201" stroke-dasharray="1,39"/>
	</g>

	<g font-family="Liberation Sans" font-size="12px">
		<g text-anchor="end">
			<text x="272" y="28" >0°</text>
			<text x="272" y="56" >15°</text>
			<text x="272" y="90" >30°</text>
			<text x="272" y="150">45°</text>
			<text x="272" y="230">60°</text>
			
			<text x="38" y="12" >480</text>
			<text x="38" y="52" >460</text>
			<text x="38" y="92" >440</text>
			<text x="38" y="132">420</text>
			<text x="38" y="172">400</text>
			<text x="38" y="212">380</text>
			<text x="38" y="252">360</text>
		</g>
		<g text-anchor="middle">
			<text x="41.5"  y="282">0.5</text>
			<text x="91.5"  y="282">0.6</text>
			<text x="141.5" y="282">0.7</text>
			<text x="191.5" y="282">0.8</text>
			<text x="241.5" y="282">0.9</text>
			<text x="291.5" y="282">1</text>
			
			<text x="166" y="296">r/R</text>
			<text x="-128" y="11" transform="rotate(-90)">Ω/2π (nHz)</text>
		</g>
		<text font-size="10px" text-anchor="start" x="2" y="298" fill-opacity="0.5">NSO/NSF</text>
	</g>
</svg>
